<?xml version="1.0" encoding="UTF-8" standalone="no"?><!DOCTYPE svg PUBLIC "-//W3C//DTD SVG 1.1//EN" "http://www.w3.org/Graphics/SVG/1.1/DTD/svg11.dtd"><svg width="100%" height="100%" viewBox="0 0 512 512" version="1.1" xmlns="http://www.w3.org/2000/svg" xmlns:xlink="http://www.w3.org/1999/xlink" xml:space="preserve" xmlns:serif="http://www.serif.com/" style="fill-rule:evenodd;clip-rule:evenodd;stroke-linejoin:round;stroke-miterlimit:2;"><rect id="safari-pinned-tab" x="0" y="0" width="512" height="512" style="fill:none;"/><g id="safari-pinned-tab1" serif:id="safari-pinned-tab"><path id="LCO-black" serif:id="LCO black" d="M337.915,73.092c-1.461,0.824 -3.171,1.844 -4.558,3.077c-1.387,1.233 -0.701,3.206 0.674,5.296c1.376,2.089 3.492,4.711 5.384,7.147c1.893,2.435 5.257,6.733 10.422,15.884c5.165,9.15 7.12,16.215 9.082,21.301c1.961,5.086 4.151,7.356 5.776,10.007c1.625,2.651 4.728,6.932 7.504,11.886c2.777,4.953 9.157,18.405 9.3,20.745c0.142,2.341 -1.793,5.158 -3.44,6.357c-1.647,1.2 -2.672,2.68 -2.838,4.274c-0.166,1.593 1.3,2.74 2.634,5.308c1.334,2.569 1.109,7.034 1.188,10.372c0.078,3.337 0.824,3.731 1.673,5.047c0.848,1.315 0.981,4.614 0.339,6.367c-0.428,1.188 -0.061,2.797 -0.556,5.868c-0.495,3.072 -0.309,6.694 -0.686,11.636c-0.377,4.943 -0.093,6.441 -0.215,10.939c-0.175,6.458 0.5,9.31 -1.571,12.22c-0.964,1.356 -4.149,1.753 -6.541,2.52c-2.391,0.766 -13.558,5.318 -18.78,7.506c-5.222,2.188 -16.596,8.688 -21.266,12.152c-4.669,3.463 -24.236,17.802 -25.604,18.942c-1.368,1.14 -2.333,2.675 -3.694,4.063c-1.361,1.387 -5.387,4.22 -7.018,5.434c-1.63,1.214 -8.675,7.813 -9.312,8.601c-0.636,0.788 -1.576,3.123 -1.871,3.745c-0.295,0.623 -1.973,1.74 -1.938,1.776c0.036,0.036 -0.58,14.864 -0.346,31.712c0.233,16.849 0.186,52.434 0.129,58.892c-0.057,6.458 0.149,16.782 0.081,21.348c-0.068,4.566 0.151,6.133 -0.111,10.926c-0.263,4.794 -1.034,11.217 -1.737,16.215c-0.703,4.999 -0.958,6.096 -2.62,11.787c-1.662,5.692 -2.613,12.442 -9.401,20.004c-3.793,4.225 -11.923,14 -27.307,13.549c-15.385,-0.45 -26.532,-11.502 -32.965,-20.442c-6.433,-8.94 -7.264,-34.894 -7.324,-40.908c-0.06,-6.014 0.907,-9.49 1.497,-10.614c0.59,-1.124 2.682,-4.043 3.282,-5.201c0.601,-1.158 0.049,-3.655 -0.432,-4.292c-0.48,-0.637 -1.832,-0.526 -2.572,-1.324c-0.739,-0.797 -1.21,-2.144 -1.449,-4.097c-0.24,-1.953 -0.669,-9.697 -0.637,-12.874c0.031,-3.176 0.25,-11.083 0.365,-13.32c0.115,-2.236 1.143,-3.468 1.815,-4.389c0.672,-0.921 1.826,-1.483 2.729,-2.508c-0.751,-1.374 -2.187,-1.902 -3.588,-2.727c-1.4,-0.825 -1.295,-4.473 -1.294,-5.551c0,-1.079 0.322,-3.459 0.315,-4.811c-0.006,-1.352 -0.481,-4.049 -0.433,-5.489c0.048,-1.441 -0.017,-9.897 -0.001,-13.437c0.016,-3.539 -0.472,-5.948 -0.45,-6.944c0.023,-0.996 0.353,-4.215 0.397,-5.193c0.043,-0.978 -0.034,-6.415 0.03,-7.325c0.063,-0.91 0.037,-0.625 0.416,-1.288c0.379,-0.663 -0.049,-3.974 -0.419,-4.736c-0.369,-0.762 -0.884,-1.478 -1.16,-2.781c1.593,-0.634 1.67,-2.154 1.941,-2.838c0.27,-0.683 0.516,-2.029 0.318,-2.42c-0.198,-0.392 -1.331,0.057 -2.008,0.2c-0.678,0.143 -1.247,0.568 -1.757,0.904c-0.51,0.336 -1.297,0.218 -1.607,-0.256c-0.311,-0.474 -0.264,-1.204 0.016,-2.053c0.28,-0.848 1.466,-0.741 1.744,-0.411c0.278,0.33 0.484,1.014 1.157,1.032c0.674,0.019 2.323,-0.384 3.153,-0.624c0.83,-0.24 1.772,-0.86 2.703,-1.377c0.932,-0.517 3.456,-1.364 4.744,-1.782c1.288,-0.419 6.437,-3.431 7.786,-3.994c1.349,-0.563 6.516,-1.233 8.718,-1.217c2.202,0.015 1.144,1.969 0.738,2.426c-0.406,0.456 -2.374,3.067 -3.655,4.122c-1.281,1.054 -4.022,4.322 -7.251,7.29c-3.229,2.968 -4.949,6.157 -5.223,7.059c-0.273,0.903 -1.352,1.992 -2.34,2.973c-0.987,0.98 -2.898,3.023 -3.455,4.262c-0.557,1.238 -0.815,5.166 -0.815,5.166c0,0 -0.072,18.987 -0.064,23.663c0.008,4.675 0.55,7.384 0.813,9.955c0.263,2.57 2.596,1.035 3.569,0.71c0.974,-0.326 3.666,-1.216 5.033,-1.739c1.367,-0.523 6.948,-2.23 8.488,-2.379c1.54,-0.15 1.209,0.865 0.799,1.228c-0.41,0.363 -2.936,3.051 -3.841,3.792c-0.905,0.74 -1.587,1.846 -4.617,3.927c-3.03,2.081 -8.044,6.838 -9.131,8.282c-1.087,1.445 -1.108,2.457 -1.108,2.457c0,0 -0.907,25.001 0.258,24.134c1.165,-0.866 8.111,-3.297 12.412,-5.501c4.3,-2.205 9.957,-3.692 9.957,-3.692c0,0 0.161,0.998 -0.083,1.563c-0.245,0.565 -0.05,0.673 -5.148,6.245c-5.099,5.573 -10.127,11.087 -11.354,12.702c-1.226,1.615 -4.182,5.106 -4.359,7.685c-0.176,2.58 2.024,3.225 2.769,3.249c0.744,0.024 3.824,-1.338 4.753,-2.062c0.93,-0.723 3.321,-1.16 4.092,-1.373c0.729,-0.202 2.543,-1.064 3.619,-1.62c3.56,-1.84 2.502,-2.495 6.149,-3.111c3.399,-0.575 4.435,-0.985 5.328,-1.407c0.893,-0.423 1.058,-2.077 1.46,-5.574c0.401,-3.498 2.88,-3.04 4.342,-3.088c1.463,-0.049 3.207,-0.763 4.172,-1.803c0.965,-1.04 2.081,-4.702 2.528,-5.839c0.447,-1.137 1.525,-3.388 3.417,-5.459c1.891,-2.07 2.746,-0.053 3.052,0.691c0.306,0.743 0.953,2.074 1.706,3.328c0.753,1.254 1.356,2.452 2.3,3.362c1.376,1.326 1.627,2.912 1.901,5.075c0.273,2.164 2.005,2.175 2.83,2.313c0.824,0.137 4.077,0.5 5.379,3.807c1.712,4.349 2.283,4.415 3.269,4.45c0.986,0.035 1.934,-0.661 3.59,-1.739c1.655,-1.078 1.893,-1.836 3.771,-2.03c1.878,-0.195 2.127,1.948 3.353,1.266c1.226,-0.682 1.108,-2.345 1.082,-3.747c-0.026,-1.402 -0.562,-7.372 -0.574,-11.475c-0.013,-4.103 -1.435,-43.233 -1.593,-54.653c-0.159,-11.421 -0.762,-61.509 -0.778,-62.9c-0.017,-1.392 -0.582,-7.043 -0.948,-9.062c-0.366,-2.019 -0.297,-2.112 -0.606,-1.999c-0.308,0.113 -1.314,1.229 -1.769,2.27c-0.454,1.041 -0.936,4.552 -1.225,6.208c-0.288,1.657 -1.327,3.632 -1.908,3.912c-0.58,0.28 -1.418,-0.723 -2.428,-2.573c-1.009,-1.851 -2.825,-7.558 -4.016,-9.989c-1.191,-2.43 -1.723,0.124 -1.962,0.919c-0.24,0.796 -0.494,3.481 -0.821,6.01c-0.327,2.529 -1.199,5.849 -2.149,8.453c-0.951,2.604 -1.143,2.669 -2.15,1.255c-1.008,-1.415 -3.557,-6.32 -4.928,-10.861c-0.624,-2.065 -1.306,-0.833 -1.889,1.614c-0.583,2.447 -1.291,5.942 -2.397,8.914c-1.106,2.973 -1.845,1.953 -3.17,0.474c-1.324,-1.48 -2.78,-5.421 -3.72,-8.011c-0.941,-2.589 -2.394,-0.551 -2.64,-0.105c-0.246,0.446 -1.369,2.906 -1.765,3.799c-0.395,0.893 -1.951,3.974 -2.472,4.988c-0.521,1.014 -1.784,3.095 -2.449,3.178c-0.665,0.084 -1.75,-1.644 -3.238,-4.255c-1.488,-2.612 -1.771,-7.492 -1.777,-8.425c-0.007,-0.933 -0.642,-2.042 -1.17,-2.215c-0.529,-0.173 -1.521,0.663 -1.978,1.247c-0.457,0.585 -2.313,3.675 -2.819,4.531c-0.506,0.856 -0.594,1.954 -1.084,2.669c-0.49,0.716 -0.605,1.918 -1.49,1.969c-0.885,0.051 -1.52,-1.664 -2.165,-3.046c-0.646,-1.383 -0.978,-5.52 -1.203,-6.882c-0.225,-1.362 -0.826,-3.215 -1.068,-3.668c-0.243,-0.452 -1.187,-1.76 -1.65,-1.786c-0.463,-0.025 -1.679,1.279 -2.227,3.205c-0.547,1.926 -1.807,4.806 -2.912,6.043c-1.105,1.238 -2.617,1.607 -3.683,2.441c-1.065,0.834 -1.132,2.767 -1.308,4.161c-0.132,1.044 -0.104,13.618 -0.15,14.518c-0.072,1.421 -0.766,1.348 -1.383,0.568c-0.698,-0.881 -3.063,-3.357 -4.429,-4.87c-1.367,-1.513 -3.082,-3.734 -4.316,-5.624c-1.235,-1.889 -2.499,-8.096 -2.735,-9.708c-0.237,-1.611 0.764,-0.718 1.374,-0.118c0.61,0.601 0.738,0.676 1.807,1.307c1.069,0.631 1.074,0.866 1.651,1.376c0.578,0.511 0.916,0.847 1.622,0.741c0.019,-0.424 -0.084,-2.224 -1.502,-3.347c-1.418,-1.122 -6.23,-6.905 -7.683,-8.849c-1.453,-1.943 -4.239,-6.638 -4.945,-9.049c-0.706,-2.411 -1.463,-3.768 -0.685,-3.347c0.777,0.422 2.956,1.342 4.149,2.056c2.665,1.594 4.765,2.32 6.131,2.605c1.365,0.285 1.893,0.037 0.07,-1.408c-1.822,-1.446 -10.902,-6.933 -15.063,-10.587c-4.162,-3.653 -10.238,-9.625 -11.839,-11.723c-1.601,-2.097 0.622,-0.784 -1.93,-3.961c-5.909,-7.359 -15.221,-27.051 -21.56,-41.639c-6.339,-14.587 -8.719,-35.54 -8.619,-45.407c0.101,-9.868 1.775,-14.825 7.737,-37.909c5.962,-23.085 19.573,-39.889 24.574,-44.986c5.002,-5.098 14.36,-11.199 26.112,-18.366c11.752,-7.168 16.431,-6.818 28.958,-7.038c12.528,-0.221 31.746,2.755 47.767,5.976c16.022,3.221 39.451,11.455 44.493,13.299c7.766,2.84 7.5,4.332 13.528,4.829c2.965,0.245 4.863,-2.189 4.983,-3.46c0.119,-1.27 -1.715,-1.505 -2.29,-1.612c-0.575,-0.107 -3.846,0.008 -5.788,-0.176c-1.941,-0.184 -3.276,-1.133 -4.287,-1.904c-1.01,-0.77 -1.968,-2.266 -1.936,-3.518c0.032,-1.253 1.152,-2.32 1.791,-2.899c0.639,-0.579 1.533,-1.61 1.482,-3.065c-0.052,-1.455 -2.612,-1.87 -3.439,-2.029c-0.828,-0.159 -4.45,0.062 -5.377,0.011c-0.927,-0.051 -1.242,-0.677 -2.877,-1.547c-1.634,-0.87 -4.571,-0.649 -5.399,-0.926c-0.828,-0.277 -0.982,-1.011 -3.098,-1.999c-3.373,-1.99 -14.884,-4.689 -15.774,-4.677c-0.89,0.011 -2.069,0.411 -2.938,0.351c-0.868,-0.06 -1.792,-0.73 -2.373,-1.352c-1.266,-1.355 -1.947,-3.32 -4.503,-3.867c-1.29,-0.276 -1.464,0.25 -2.884,0.315c-3.233,0.148 -6.215,-3.435 -7.601,-3.698c-1.387,-0.263 -1.645,4.105 -3.793,4.133c-2.147,0.028 -2.704,-3.771 -3.42,-4.388c-0.715,-0.616 -4.237,-1.013 -6.35,-1.256c-2.114,-0.243 -7.974,-0.733 -12.074,-0.948c-4.099,-0.215 -3.66,1.094 -4.25,1.167c-0.59,0.073 -1.435,-0.735 -2.1,-0.758c-0.665,-0.023 -0.829,0.39 -1.441,0.405c-0.612,0.016 -0.339,-0.006 -6.656,0.003c-6.318,0.008 -5.251,0.485 -6.283,0.598c-1.031,0.113 -1.322,-0.396 -1.972,-0.438c-0.65,-0.042 -3.601,-0.135 -6.141,-0.194c-2.54,-0.058 -7.487,0.983 -9.373,1.321c-1.887,0.339 -3.47,0.968 -5.53,1.806c-2.059,0.838 -5.662,1.423 -6.949,1.455c-1.287,0.032 -2.988,0.802 -3.671,1.36c-0.682,0.559 -2.952,2.376 -4.107,2.909c-1.155,0.534 -2.647,0.373 -3.74,0.594c-1.094,0.222 -0.483,2.031 -1.223,2.683c-0.739,0.652 -3.4,1.089 -4.832,1.654c-1.433,0.564 -3.459,2.727 -5.203,3.994c-1.744,1.266 -4.076,3.497 -6.537,5.663c-2.461,2.167 -3.631,2.676 -5.536,3.938c-1.905,1.262 -2.541,2.535 -3.056,3.789c-0.516,1.255 -1.182,4.478 -1.617,5.717c-0.434,1.239 -1.616,1.656 -2.217,1.876c-0.602,0.221 -1.525,-0.152 -2.056,-0.256c-0.531,-0.103 -1.552,0.111 -1.976,0.746c-0.423,0.634 -0.213,2.651 0.227,3.292c0.441,0.642 1.976,2.753 2.52,3.641c0.544,0.889 1.92,3.441 1.896,4.944c-0.024,1.502 -2.046,5.432 -3.05,6.161c-1.004,0.73 -0.758,0.429 -2.08,1.247c-1.323,0.818 -2.802,2.393 -4.47,5.594c-1.668,3.201 -2.363,7.048 -3.266,8.897c-0.903,1.849 -2.747,3.998 -3.341,5.001c-0.595,1.002 -0.502,3.027 -0.875,4.181c-0.373,1.153 0.182,-0.1 -2.088,5.078c-2.271,5.177 -2.606,9.197 -2.888,12.707c-0.283,3.511 -0.627,15.287 -0.547,19.79c0.081,4.502 0.145,10.729 0.366,16.427c0.222,5.697 2.06,6.457 2.442,7.064c0.383,0.606 1.424,1.772 1.46,3.214c0.035,1.442 -0.958,2.005 -1.702,2.123c-0.743,0.119 -1.672,1.274 -1.729,3.172c-0.057,1.899 1.47,4.913 1.951,6.24c0.482,1.327 1.644,3.472 2.416,5.169c0.772,1.698 2.217,4.814 2.163,5.813c-0.053,0.999 -0.62,2.381 -0.395,3.677c0.224,1.297 1.281,2.781 2.434,4.189c1.154,1.408 3.039,2.128 3.867,2.514c0.829,0.386 0.966,1.341 1.113,2.073c0.147,0.733 -0.133,1.598 0.991,4.516c1.124,2.918 2.59,4.054 2.987,4.883c0.396,0.829 0.847,2.35 1.409,3.85c0.562,1.5 1.929,3.118 3.281,4.78c1.353,1.662 3.984,3.826 4.725,3.986c0.74,0.16 2.251,0.344 2.338,0.971c0.088,0.628 -0.417,2.276 -0.34,3.026c0.077,0.75 1.008,1.629 1.447,2.012c0.438,0.384 2.641,1.785 3.152,2.603c0.512,0.819 1.697,3.464 2.38,4.575c0.683,1.112 2.608,2.577 3.471,3.25c0.864,0.672 2.308,0.809 2.863,1.261c0.556,0.452 1.426,2.127 2.013,3.759c0.586,1.632 0.71,2.231 2.331,4.916c1.62,2.685 4.481,4.536 5.599,5.92c1.117,1.384 4.071,5.107 4.907,7.136c0.836,2.029 1.088,5.02 1.829,6.095c0.52,0.756 1.293,1.589 1.923,3.136c0.63,1.547 0.925,3.787 0.954,5.424c0.029,1.637 0.069,2.709 1.667,6.781c1.598,4.073 1.701,3.48 2.477,4.962c0.775,1.481 0.236,2.915 0.806,4.453c0.57,1.539 1.068,3.976 1.109,4.651c0.041,0.676 -0.749,1.008 -0.699,2.187c0.049,1.18 -0.155,0.384 1.401,4.2c1.555,3.817 1.039,4.494 -0.033,7.272c-1.072,2.777 -5.907,12.18 -9.268,18.145c-3.362,5.965 -8.699,13.007 -15.315,21.967c-6.617,8.959 -17.4,20.622 -20.523,23.539c-3.123,2.918 -6.798,4.518 -9.741,6.235c-2.943,1.717 -9.863,4.354 -14.714,5.822c-4.347,1.315 -5.213,-0.986 -1.282,-5.751c3.931,-4.764 9.291,-12.991 12.764,-19.343c8.328,-15.233 14.374,-31.858 17.773,-45.077c1.424,-5.539 1.269,-31.59 0.769,-37.047c-0.5,-5.458 -2.92,-12.09 -4.648,-16.099c-1.729,-4.008 -4.813,-10.67 -5.414,-11.481c-0.602,-0.812 -1.399,-6.586 -1.813,-8.428c-0.414,-1.843 -3.476,-9.067 -3.901,-10.143c-0.424,-1.076 -1.154,-3.446 -2.43,-3.713c-1.276,-0.268 -1.92,-1.591 -2.298,-2.706c-0.379,-1.115 -1.099,-2.8 -2.446,-3.753c-1.346,-0.953 -3.617,-0.781 -4.83,-1.982c-1.213,-1.201 -2.072,-6.137 -2.526,-8.341c-0.455,-2.205 -1.708,-7.173 -2.583,-9.687c-0.876,-2.514 -5.319,-12.623 -6.547,-15.915c-1.229,-3.293 -2.083,-7.565 -3.241,-14.39c-1.159,-6.825 -4.103,-18.942 -4.249,-21.689c-0.147,-2.748 -0.326,-9.765 -0.44,-14.947c-0.114,-5.182 -0.37,-14.317 -0.37,-14.317c-0,-0 -1.346,-3.845 -0.613,-3.609c0.732,0.237 1.02,-0.059 1.267,-1.793c0.247,-1.735 0.743,-7.567 0.915,-9.568c0.173,-2 1.028,-12.612 1.123,-14.579c0.096,-1.968 -0.211,-6.355 0.208,-7.836c0.419,-1.48 1.037,-2.063 1.644,-2.943c0.607,-0.879 1.243,-1.735 1.57,-3.116c0.327,-1.382 -0.696,-2.244 -0.12,-3.814c0.575,-1.57 2.058,-3.132 3.062,-5.063c1.005,-1.93 4.355,-6.106 5.745,-8.204c1.389,-2.098 2.492,-0.688 3.497,-0.12c1.004,0.567 3.797,2.596 5.498,3.937c1.701,1.34 5.196,3.387 6.531,3.736c1.336,0.349 2.307,-0.314 2.035,-1.738c-0.273,-1.423 -3.31,-5.12 -4.501,-6.447c-1.191,-1.326 -4.322,-3.552 -4.977,-5.015c-0.656,-1.463 0.592,-6.754 1.021,-8.605c0.429,-1.851 1.583,-3.358 2.397,-3.683c0.814,-0.326 2.007,-1.475 2.523,-2.436c0.517,-0.96 1.578,-1.519 3.015,-3.273c1.437,-1.754 5.331,-6.12 6.97,-7.315c1.639,-1.195 2.568,-0.957 3.961,-2.008c1.393,-1.051 5.156,-4.222 8.305,-5.836c3.15,-1.615 4.769,-2.93 8.073,-5.272c3.304,-2.342 6.469,-3.052 9.757,-4.773c3.288,-1.72 6.263,-2.13 9.423,-3.989c1.516,-0.891 4.933,-1.052 7.093,-1.249c2.159,-0.196 2.992,-1.402 4.147,-1.514c1.155,-0.111 1.233,0.628 1.987,0.619c0.754,-0.01 1.26,-0.131 2.248,-0.729c2.46,-1.489 3.293,-1.532 7.325,-1.473c4.033,0.059 3.623,-1.566 7.905,-1.589c4.333,-0.023 5.636,2.064 8.821,1.994c4.903,-0.109 5.953,-1.746 8.473,-1.834c2.52,-0.087 4.272,0.196 14.154,-0.098c5.428,-0.162 12.67,0.343 14.132,0.372c1.462,0.029 1.31,-0.563 2.523,-0.545c1.214,0.018 3.159,1.413 4.405,1.605c1.246,0.193 2.747,-1.868 4.575,-1.91c1.827,-0.041 3.453,1.751 4.827,1.76c1.374,0.01 1.423,0.049 2.933,-1.732c1.509,-1.781 3.207,-1.433 5.085,0.293c1.877,1.725 3.858,2.124 6.027,2.575c2.17,0.452 9.223,1.095 15.648,1.924c6.426,0.83 16.755,1.963 18.013,2.471c1.258,0.509 2.853,1.783 5.784,2.04c2.931,0.256 3.414,0.314 4.072,1.006c0.659,0.692 2.006,1.065 3.327,1.208c1.32,0.143 1.561,0.744 2.251,1.814c0.69,1.069 1.422,1.816 3.541,1.907c2.12,0.092 8.164,-2.624 12.394,-3.723c4.229,-1.099 15.554,-3.031 17.247,-2.889c1.693,0.142 2.878,2.582 2.91,3.614c0.032,1.033 -1.926,1.831 -1.387,3.485c0.539,1.654 2.314,1.127 4.146,1.12c8.554,-0.034 6.83,-2.019 25.283,-2.206c6.875,-0.07 18.797,0.878 23.436,1.74c4.64,0.862 3.728,2.691 1.281,3.427c-2.447,0.737 -6.835,1.973 -16.4,4.443c-9.566,2.47 -41.161,13.418 -73.559,31.674Zm-86.246,128.279c3.639,0.06 5.043,0.653 5.84,1.329c0.682,0.579 1.032,2.363 1.002,4.042c-0.029,1.678 -0.524,3.53 -0.456,5.279c0.067,1.748 0.391,5.823 2.343,8.092c1.953,2.269 4.241,3.957 5.232,4.152c0.991,0.195 2.616,0.979 4.261,0.317c1.645,-0.662 0.598,-3.271 0.627,-4.012c0.03,-0.741 0.812,-1.789 4.175,-2.646c3.364,-0.857 0.553,-3.734 -0.153,-4.734c-0.706,-1.001 -2.296,-3.159 -2.278,-3.651c0.018,-0.491 1.641,-1.299 2.203,-1.619c0.562,-0.32 1.709,-0.828 1.786,-1.592c0.076,-0.764 -1.525,-1.825 -1.607,-3.07c-0.083,-1.245 1.336,-2.406 1.663,-2.984c0.328,-0.578 0.586,-1.218 0.123,-2.064c-0.463,-0.845 -3.326,-0.48 -3.849,-0.685c-0.523,-0.205 -0.858,-1.203 -0.837,-2.642c0.016,-1.155 0.567,-3.51 0.567,-3.51c-0,0 -1.055,-0.231 -2.342,-0.213c-1.287,0.018 -2.783,-0.152 -3.776,-0.89c-0.992,-0.738 -0.66,-2.282 -0.721,-3.742c-0.061,-1.459 -2.959,-1.138 -3.929,-1.068c-0.97,0.07 -1.944,1.639 -3.646,0.498c-1.702,-1.14 -2.969,-7.579 -2.969,-7.579c-0,-0 -1.716,0.103 -2.651,0.944c-0.936,0.841 -1.441,2.425 -3.028,2.478c-1.586,0.053 -2.864,-1.793 -3.351,-0.715c-0.644,1.428 -0.712,5.057 -0.511,9.277c0.485,10.201 -1.217,10.885 6.282,11.008Zm-48.946,70.522c2.744,-3.269 7.305,-7.354 9.002,-8.659c1.697,-1.304 5.079,-0.692 5.011,1.444c-0.068,2.135 0.432,2.838 1.217,3.911c0.785,1.072 2.025,1.79 2.411,3.156c0.385,1.366 0.451,3.885 0.66,7.933c0.209,4.047 1.81,0.698 2.265,-0.718c0.454,-1.417 1.761,-5.095 1.966,-5.73c1.615,-4.997 4.983,-1.232 6.193,3.344c1.209,4.576 1.699,7.006 1.616,8.56c-0.084,1.553 -0.801,1.361 -0.068,2.483c1.35,-0.843 3.828,-3.123 5.552,-6.14c1.723,-3.017 3.344,-1.355 5.409,0.531c2.064,1.887 3.023,0.556 3.242,-0.286c0.219,-0.842 0.412,-1.814 0.803,-4.559c0.391,-2.744 0.121,-6.088 1.949,-9.068c2.874,-4.685 4.595,-0.062 4.739,1.183c0.145,1.244 0.562,1.073 0.697,6.125c0.134,5.053 1.883,9.321 2.286,9.289c0.403,-0.032 0.775,-1.835 1.039,-3.919c0.264,-2.083 0.122,-3.048 1.476,-5.903c1.355,-2.854 4.043,-2.525 6.3,-0.83c2.256,1.694 3.328,0.814 4.26,0.041c0.933,-0.773 1.731,-1.376 4.545,-5.876c2.814,-4.5 0.921,-11.204 -0.976,-17.306c-1.896,-6.101 -6.615,-15.69 -9.148,-20.508c-2.534,-4.818 -7.543,-10.652 -9.368,-12.656c-1.826,-2.005 -9.669,-1.353 -13.545,-1.504c-3.877,-0.151 -10.961,0.563 -15.743,0.355c-4.783,-0.208 -3.857,1.914 -5.613,4.103c-1.464,1.824 -4.81,10.116 -6.075,11.715c-5.982,7.562 -8.654,16.054 -10.795,22.885c-2.141,6.831 -1.307,16.604 -1.307,16.604Zm-8.96,21.048c-0.314,4.461 4.165,7.823 5.093,7.98c0.928,0.157 1.511,-1.239 1.558,-2.206c0.047,-0.967 -1.357,-3.101 -2.499,-4.027c-1.142,-0.927 -4.152,-1.747 -4.152,-1.747Zm43.028,-121.296c0.008,2.565 -0.088,5.325 0.024,10.41c0.175,7.956 0.601,12.52 1.292,16.246c0.692,3.726 3.335,2.224 4.14,1.488c0.806,-0.736 1.007,-5.38 1.159,-8.404c0.151,-3.023 0.187,-8.233 0.195,-11.227c0.007,-2.994 -0.378,-4.464 -0.246,-8.677c0.132,-4.214 -0.155,-6.168 0.014,-16.677c0.169,-10.51 -3.029,-13.402 -6.054,-13.573c-3.025,-0.171 -1.308,18.44 -1.308,18.44c0,0 0.772,8.319 0.784,11.974Zm55.148,122.661c-0,-0 14.367,-12.387 18.706,-15.48c4.339,-3.092 14.796,-10.265 17.288,-11.873c2.492,-1.609 10.893,-7.522 13.039,-8.572c2.145,-1.05 6.866,-4.573 6.866,-4.573c0,-0 -15.859,0.257 -24.123,0.333c-8.264,0.076 -16.737,-1.048 -21.788,-2.841c-5.05,-1.793 -7.596,-2.624 -8.839,-2.174c-1.244,0.451 -3.861,4.009 -4.665,6.059c-0.804,2.05 -0.652,5.161 -0.788,7.422c-0.136,2.261 0.557,11.135 0.53,15.524c-0.026,4.389 0.024,16.424 0.024,16.424c0,-0 -0.263,4.124 3.75,-0.249Zm-104.405,-19.827c-0,-0 2.555,4.235 5.568,6.853c3.014,2.618 5.493,4.301 6.661,4.261c1.169,-0.039 1.814,-1.491 1.854,-2.56c0.039,-1.068 -0.993,-4.38 -1.899,-5.385c-0.906,-1.005 -5.596,-3.034 -12.184,-3.169Zm36.218,-103.706c2.214,1.901 5.244,4.668 6.479,6.052c1.235,1.384 2.325,-0.647 3.844,-3.95c1.519,-3.303 0.752,-6.643 -0.139,-7.756c-0.892,-1.114 -4.069,-1.518 -6.294,-2.776c-2.225,-1.258 -5.165,-4.789 -5.165,-4.789c-0,-0 -0.999,8.372 -4.209,9.721c-2.172,0.913 -7.233,-3.965 -10.303,-4.037c-1.575,-0.037 -0.64,4.657 -1.533,5.559c-0.892,0.902 -5.163,-0.332 -6.149,-0.392c-0.986,-0.06 -0.804,1.002 -0.86,2.72c-0.056,1.719 1.013,5.25 0.446,6.06c-0.567,0.811 -1.568,0.807 -4.873,-0c-3.306,-0.808 -4.521,-0.504 -4.452,2.393c0.206,8.731 -1.087,7.436 -1.938,8.866c-0.851,1.429 -4.806,2.074 -5.899,2.973c-1.093,0.898 -0.333,0.734 3.308,4.086c3.642,3.351 2.144,4.096 2.144,4.096c0,0 -1.405,1.049 -4.262,1.355c-2.857,0.305 -2.942,0.488 -1.895,1.938c1.047,1.45 3.701,4.541 3.091,5.656c-1.139,2.082 -3.7,2.478 -3.846,3.443c-0.147,0.966 0.597,0.922 2.268,1.613c1.671,0.691 6.941,2.301 6.718,5.455c-0.135,1.904 0.238,3.041 -1.403,4.564c-1.64,1.523 -2.251,3.391 -0.645,3.7c1.605,0.309 6.939,-0.053 6.774,1.619c-0.165,1.673 -2.44,5.731 -2.276,6.511c0.163,0.78 4.135,-1.001 5.24,-1.218c1.106,-0.217 4.588,-1.85 5.198,-0.859c1.17,1.901 0.4,7.635 1.021,8.274c0.62,0.638 2.144,-0.134 3.795,-2.6c1.652,-2.465 3.253,-4.468 3.983,-6.004c0.731,-1.537 2.2,-3.357 -1.545,-4.247c-3.746,-0.891 -7.364,-2.216 -8.537,-2.506c-1.172,-0.291 -2.477,-1.208 -1.055,-3.447c1.422,-2.238 0.008,-4.37 -2.568,-4.735c-2.576,-0.364 -3.115,-1.306 -2.342,-3.704c0.772,-2.399 -0.582,-3.265 -3.148,-3.678c-2.566,-0.414 -3.029,-1.182 -2.927,-1.806c0.101,-0.624 0.57,-0.958 1.888,-1.526c1.317,-0.569 3.2,-0.308 3.347,-1.668c0.147,-1.361 -3.879,-3.149 -3.591,-4.089c0.288,-0.94 4.858,-1.387 5.108,-2.822c0.25,-1.434 -4.891,-6.163 -2.574,-5.948c1.01,0.093 6.895,0.588 7.391,-0.867c0.497,-1.455 -0.183,-3.901 -1.006,-5.173c-0.823,-1.272 -0.595,-2.301 0.634,-1.946c1.23,0.356 2.792,1.406 3.551,0.596c0.76,-0.811 0.309,-3.122 1.193,-3.531c0.883,-0.409 5.713,1.225 6.782,0.337c1.069,-0.887 0.833,-3.874 1.498,-4.65c0.666,-0.777 2.373,0.522 4.103,0.883c1.731,0.362 2.497,0.822 3.224,0.041c0.728,-0.782 1.56,-8.514 2.406,-7.787Zm-0.749,35.19c0,-0 0.255,-5.063 4.007,-4.98c3.752,0.084 8.11,-0.037 8.11,-0.037c0,-0 0.505,-12.322 -0.155,-19.372c-0.321,-3.429 -1.188,-2.463 -2.051,-2.079c-0.863,0.385 -2.834,0.568 -3.927,-0.758c-1.093,-1.325 -2.035,-3.274 -2.807,-3.334c-0.771,-0.061 -1.4,1.237 -1.713,2.418c-0.314,1.181 -0.628,2.544 -3.154,2.026c-2.527,-0.517 -4.086,-0.499 -4.174,0.652c-0.088,1.15 -0.195,5.001 -4.238,4.49c-2.208,-0.279 -2.437,-0.21 -2.969,0.272c-0.531,0.481 0.047,2.048 -0.179,2.978c-0.227,0.929 -1.591,0.157 -2.758,-0.162c-1.167,-0.32 -3.612,-0.629 -3.153,0.771c0.459,1.401 1.474,4.232 0.928,5.02c-0.571,0.824 -4.996,-0.056 -5.654,1.341c-0.659,1.397 0.475,2.781 0.289,4.031c-0.187,1.25 -2.519,2.703 -2.389,3.531c0.131,0.828 3.206,2.452 3.165,3.278c-0.04,0.825 -3.171,1.965 -3.062,3.184c0.225,2.513 4.421,1.262 4.381,2.218c-0.04,0.957 -2.679,3.264 -2.403,4.219c0.563,1.942 5.749,1.269 6.191,4.032c0.198,1.233 -2.642,1.126 -2.412,4.314c0.107,1.474 2.063,1.041 3.324,1.604c1.262,0.563 2.143,0.312 3.294,1.006c1.15,0.693 2.156,0.941 3.342,0.752c1.187,-0.19 2.975,-0.604 4.285,-3.731c1.311,-3.126 4.84,-9.698 5.882,-17.684Zm20.788,235.177c-0,-0 -0.557,2.935 -0.631,4.005c-0.073,1.07 -0.774,11.519 -0.709,14.705c0.064,3.185 -0.063,18.16 0.001,22.515c0.064,4.355 1.021,6.159 1.189,5.186c0.167,-0.973 0.682,-3.019 0.929,-6.842c0.247,-3.823 0.899,-17.13 0.869,-22.496c-0.031,-5.366 -0.513,-14.086 -0.886,-17.223c-0.372,-3.138 -0.762,0.15 -0.762,0.15Zm-84.612,-271.265c-0.092,-1.921 0.917,-5.746 1.274,-7.651c0.356,-1.906 -0.799,-4.582 -0.867,-5.984c-0.069,-1.402 0.509,-4.208 0.673,-6.227c0.163,-2.018 0.534,-7.63 0.848,-9.188c0.315,-1.559 1.665,-1.836 2.474,-3.721c0.809,-1.885 1.208,-5.051 -0.387,-9.364c-1.595,-4.313 -4.059,-1.894 -5.065,-0.863c-1.005,1.031 0.276,3.138 0.21,4.341c-0.066,1.204 -0.054,4.061 -0.995,5.102c-0.942,1.041 -3.247,2.485 -3.941,3.648c-0.694,1.164 -0.014,5.573 -0.219,6.579c-0.205,1.006 -1.246,1.665 -2.348,3.136c-1.102,1.472 -0.797,5.23 -0.755,11.146c0.043,5.917 1.733,6.205 1.678,7.788c-0.055,1.583 -1.227,2.647 -0.899,7.305c0.327,4.658 2.494,15.474 9.21,29.345c6.715,13.872 14.702,22.936 15.655,23.994c0.954,1.059 4.487,4.55 5.63,4.715c-0.227,-1.637 -0.468,-1.892 -0.835,-2.764c-0.871,-2.071 -4.224,-10.67 -7.094,-16.528c-11.23,-22.921 -14.011,-39.896 -14.247,-44.809Zm91.78,-16.157c0,0 -5.965,10.143 -5.656,14.643c0.309,4.501 1.592,11.337 4.915,10.88c3.324,-0.458 4.726,-2.764 5.863,-2.518c1.136,0.247 1.087,1.741 1.677,3.372c0.591,1.631 1.1,3.349 2.312,3.435c1.211,0.086 3.93,-0.581 5.237,-0.78c1.307,-0.2 2.963,-0.271 2.895,0.977c-0.067,1.248 -0.213,3.972 0.604,4.614c0.818,0.641 3.199,0.586 4.737,0.329c2.367,-0.395 4.5,0.732 2.649,2.287c-1.297,1.09 -1.653,2.542 -1.625,4.407c0.027,1.865 2.657,0.948 4.561,1.84c1.905,0.892 2.768,1.627 2.65,2.469c-0.119,0.843 -3.148,1.787 -3.083,3.071c0.066,1.283 4.095,3.574 4.159,4.422c0.065,0.849 -5.84,1.964 -5.818,3.846c0.033,2.872 3.338,2.842 3.195,5.936c-0.046,0.994 -4.39,1.348 -5.388,2.51c-0.997,1.162 -0.453,2.77 -0.416,4.084c0.036,1.314 0.035,1.95 -2.046,2.159c-2.082,0.209 -4.157,0.002 -4.552,1.316c-0.396,1.314 -0.47,2.916 1.826,6.551c2.295,3.636 4.894,6.387 6.472,5.693c1.578,-0.694 2.539,-3.466 2.624,-4.715c0.085,-1.248 0.002,-4.467 2.601,-6.112c2.598,-1.645 7.495,-3.22 8.778,-4.367c0.229,-0.204 -5.327,-6.233 -6.428,-7.367c-1.102,-1.134 -1.969,-3.549 -0.198,-4.304c1.771,-0.756 5.414,-1.345 6.475,-1.391c1.06,-0.046 2.814,-1.585 0.834,-2.571c-1.981,-0.987 -1.597,-1.219 -3.15,-1.921c-1.553,-0.702 -2.469,-2.359 -2.076,-3.689c0.393,-1.331 1.597,-2.913 2.692,-3.563c1.094,-0.649 2.594,-1.4 2.51,-2.835c-0.085,-1.435 -2.349,-2.142 -4.586,-2.227c-2.237,-0.086 -4.267,-2.425 -4.538,-3.966c-0.27,-1.54 2.71,-5.811 2.589,-7.079c-0.122,-1.267 -10.98,1.378 -10.98,1.378c0,0 1.468,-10.716 0.92,-12.158c-0.548,-1.442 -1.886,-0.815 -4.039,-0.561c-2.152,0.253 -5.144,0.332 -6.735,-1.67c-1.592,-2.002 -1.193,-2.488 -1.62,-4.216c-0.428,-1.727 -2.065,-4.046 -3.778,-3.745c-1.712,0.301 -3.256,0.75 -4.179,-0.334c-0.923,-1.083 -1.479,-1.703 -2.884,-8.13Zm-25.68,52.328c-0.565,4.107 -2.213,7.833 2.62,8.131c11.262,0.693 16.193,-0.354 21.721,-0.569c5.527,-0.214 6.206,-1.566 6.454,-5.145c0.248,-3.578 -3.495,-4.11 -4.695,-4.497c-1.199,-0.386 -17.396,-1.239 -21.705,-1.394c-4.31,-0.155 -4.395,3.474 -4.395,3.474Zm-61.237,-90.59c1.032,1.402 4.393,1.589 5.365,-0.17c0.972,-1.758 0.605,-4.341 1.483,-4.82c2.523,-1.375 5.21,0.477 6.328,-0.225c2.155,-1.354 3.098,-6.933 4.293,-8.523c1.196,-1.589 3.964,-2.87 7.048,-5.732c3.084,-2.862 5.869,-5.516 6.795,-5.448c0.926,0.068 3.443,1.821 4.8,1.087c1.357,-0.734 3.513,-3.333 4.354,-4.133c0.842,-0.799 3.89,-3.717 4.563,-3.563c0.673,0.154 2.733,3.63 3.481,6.665c0.286,1.161 1.578,2.455 2.191,0.506c0.614,-1.948 2.128,-5.703 3.183,-7.376c1.054,-1.673 4.817,-5.278 5.608,-5.086c0.791,0.191 1.666,2.198 1.769,3.12c0.102,0.921 0.284,6.96 1.061,7.687c0.777,0.726 1.718,1.016 2.817,-1.559c1.099,-2.574 2.099,-5.866 3.072,-6.948c0.973,-1.083 2.682,-2.178 3.531,-1.981c0.848,0.197 3.341,1.806 2.947,8.471c1.289,-0.722 1.085,-1.229 1.997,-2.733c0.912,-1.504 2.191,-3.285 3.431,-4.191c1.239,-0.907 3.469,-2.34 4.07,-1.981c0.602,0.359 2.148,1.43 1.982,5.135c-0.165,3.706 -0.055,5.012 1.228,3.617c1.283,-1.396 3.477,-4.125 5.558,-4.984c2.082,-0.859 4.11,-0.849 4.82,0.416c0.711,1.265 0.779,5.783 0.489,7.817c-0.289,2.033 -0.733,3.275 -0.277,3.668c0.456,0.393 3.709,-3.677 5.037,-5.043c1.702,-1.751 3.927,-3.424 5.476,-3.28c1.549,0.143 2.623,0.426 2.521,2.076c-0.102,1.65 -1.625,8.447 -2.115,9.796c-0.49,1.349 0.512,0.778 1.542,-1.265c1.03,-2.042 3.476,-5.714 4.329,-6.892c1.058,-1.459 4.982,-3.128 4.859,1.143c-0.168,5.843 0.766,8.308 2.562,6.54c1.795,-1.768 3.025,-3.784 3.935,-4.491c0.91,-0.706 3.131,-2.428 3.404,0.995c0.274,3.423 0.674,5.144 0.608,6.791c-0.067,1.648 0.462,4.269 2.506,1.293c2.043,-2.975 2.171,-4.544 3.039,-5.285c0.867,-0.742 2.281,-0.372 3.191,1.019c0.911,1.391 1.358,7.424 0.568,11.323c-0.79,3.9 -2.187,8.828 -3.882,12.709c-1.695,3.88 -4.979,11.728 -6.158,16.602c-1.179,4.874 -1.888,5.895 -2.06,8.01c-0.173,2.116 0.072,4.768 1.595,2.07c1.523,-2.697 4.106,-10.021 4.946,-11.963c0.841,-1.941 3.644,-6.79 5.503,-12.165c1.859,-5.374 3.919,-12.218 4.903,-15.533c0.983,-3.314 2.95,-9.731 3.176,-11.979c0.226,-2.248 1.256,-7.14 -2.686,-6.279c-1.992,0.436 -4.739,0.789 -6.312,-1.693c-0.903,-1.424 -1.113,-3.254 -1.06,-4.546c0.054,-1.292 -0.953,-3.345 -2.225,-0.405c-1.273,2.941 -2.81,2.837 -3.765,2.638c-0.955,-0.199 -3.394,-0.204 -3.702,-4.689c-0.307,-4.485 -0.477,-6.918 -0.582,-8.115c-0.55,-0.073 -1.62,0.815 -2.279,2c-0.659,1.186 -2.629,4.02 -3.644,4.717c-1.015,0.696 -2.246,1.044 -2.751,1.63c-0.505,0.585 -0.971,-0.914 -2.126,-1.461c-1.154,-0.546 -2.062,-2.467 -2.047,-3.375c0.016,-0.908 -0.605,-1.858 -0.974,-1.213c-0.368,0.645 -2.75,2.887 -3.543,3.941c-0.793,1.053 -1.294,1.82 -1.753,2.112c-0.458,0.292 -0.657,-0.297 -0.916,-0.347c-0.26,-0.05 -0.259,0.971 -0.84,0.192c-0.581,-0.779 -1.372,-1.379 -1.705,-3.162c-0.333,-1.782 -2.132,-3.069 -2.853,-3.075c-0.72,-0.006 -1.838,1.638 -2.442,2.221c-0.605,0.583 -1.403,1.024 -2.409,1.046c-1.006,0.022 -2.048,-0.875 -2.301,-3.487c-0.252,-2.612 -0.839,-3.971 -1.697,-4.003c-0.858,-0.033 -1.938,1.001 -2.4,2.04c-0.463,1.039 -1.049,2.546 -2.268,2.513c-1.219,-0.033 -2.79,-1.421 -3.997,-4.349c-1.207,-2.929 -1.525,-3.669 -1.603,-4.809c-0.94,-0.119 -2.354,1.363 -2.799,2.214c-0.444,0.851 -1.932,3.587 -2.51,4.733c-0.578,1.146 -1.547,2.41 -2.472,2.487c-0.926,0.077 -2.029,-1.07 -2.487,-2.589c-0.458,-1.518 -1.487,-4.48 -1.983,-4.741c-0.497,-0.262 -0.729,0.376 -1.736,1.236c-1.007,0.861 -2.189,1.705 -2.729,2.44c-0.54,0.736 -1.357,1.909 -2.157,1.837c-0.801,-0.072 -2.662,-2.681 -3.337,-3.952c-0.674,-1.271 -1.099,-2.241 -1.829,-2.142c-0.73,0.1 -1.288,0.957 -1.78,2.261c-0.491,1.305 -1.091,2.985 -1.828,4.107c-0.738,1.122 -1.259,2.584 -2.333,2.601c-1.075,0.017 -3.131,-2.409 -3.559,-3.176c-0.429,-0.767 -1.11,-1.332 -2.111,0.191c-1,1.522 -2.833,4.477 -4.031,5.623c-1.197,1.146 -2.792,2.227 -4.376,2.131c-1.585,-0.095 -1.719,-1.605 -3.252,-1.439c-2.293,0.249 -2.22,1.806 -3.166,3.416c-0.945,1.61 -1.553,2.363 -2.718,2.394c-1.165,0.032 -2.973,-1.141 -3.6,-1.591c-0.626,-0.45 -1.858,-0.872 -2.111,0.311c-0.254,1.184 -0.049,8.028 -1.629,9.502c-1.58,1.475 -2.242,0.79 -3.496,0.864c-1.255,0.074 -3.855,-0.905 -4.932,1.298c-1.077,2.204 -1.793,3.282 -2.766,3.886c-0.973,0.604 -3.268,0.195 -4.02,1.267c-0.752,1.072 -0.575,3.749 -1.412,4.73c-0.837,0.981 -0.833,1.739 -1.449,2.228c-0.616,0.489 -1.999,0.866 -2.933,2.116c-0.934,1.25 -1.79,3.505 -1.051,4.508Zm167.772,-28.718c-4.051,-4.139 -5.165,7.893 -5.165,7.893c0,0 -1.139,15.761 -4.959,32.239c-3.82,16.477 -6.76,23.198 -9.604,31.541c-2.844,8.342 -5.846,15.872 -8.188,23.547c-2.343,7.675 -3.747,15.023 -4.514,21.438c-0.768,6.415 -4.136,24.78 -4.405,33.434c-0.27,8.655 4.797,9.805 7.552,11.009c2.755,1.204 15.919,3.806 21.159,4.012c5.241,0.207 16.868,-2.032 24.528,-2.839c7.66,-0.808 16.141,-2.628 21.726,-3.836c5.585,-1.207 5.277,-3.411 5.711,-8.983c0.122,-1.571 0.174,-5.184 0.302,-13.427c0.203,-13.078 1.077,-19.6 1.077,-19.6c0,-0 -5.51,-0.828 -12.213,0.695c-6.702,1.523 -11.769,6.164 -14.511,8.357c-2.742,2.193 -3.244,6.586 -4.143,6.546c-0.898,-0.04 -1.37,-1.148 -1.691,-3.312c-0.32,-2.165 0.301,-6.467 1.36,-10.156c1.059,-3.689 5.326,-11.382 6.571,-13.521c1.246,-2.14 4.01,-3.472 4.984,-2.98c0.973,0.493 0.553,3.658 1.047,5.29c0.494,1.633 4.065,0.733 7.214,0.378c3.149,-0.355 6.554,-1.358 8.56,-2.804c2.007,-1.445 -1.068,-6.646 -2.034,-8.306c-0.965,-1.66 -4.014,-2.13 -6.554,-2.304c-2.54,-0.174 -5.925,-0.594 -7.527,-1.508c-1.602,-0.913 -2.428,-2.941 -3.006,-5.014c-0.578,-2.073 0.243,-4.671 2.824,-1.506c2.58,3.166 5.915,4.6 7.723,4.775c1.808,0.175 3.693,-0.638 8.16,-5.225c4.467,-4.588 1.07,-9.017 -0.082,-12.375c-1.151,-3.358 -9.291,-15.787 -10.447,-17.621c-1.155,-1.834 -2.151,-3.612 -4.68,-4.361c-2.53,-0.75 -9.001,1.527 -12.679,2.511c-3.679,0.984 -7.573,5.156 -8.708,5.939c-1.135,0.783 -1.954,1.395 -2.994,0.867c-1.039,-0.527 -0.763,-1.396 -1.013,-4.721c-0.251,-3.325 2.515,-7.51 4.776,-10.306c2.261,-2.796 9.981,-4.874 13.594,-5.866c3.614,-0.993 2.525,-3.856 1.795,-5.505c-0.729,-1.649 -4.052,-8.446 -6.135,-12.309c-2.082,-3.863 -5.417,-8.688 -8.168,-13.522c-2.751,-4.834 -7.243,-8.564 -7.243,-8.564Zm-88.343,221.83c0.038,0.324 0.251,1.191 1.401,2.018c-0.02,1.563 0.009,2.775 0.009,2.775c0,-0 -0.422,0.714 -0.387,2.992c0.035,2.277 0.426,2.441 0.413,3.733c-0.014,1.292 0.017,22.011 0.02,26.125c0.003,4.114 -0.533,12.517 -0.467,15.386c0.066,2.869 0.204,3.073 -0.057,4.783c-0.261,1.71 -0.252,3.653 -0.306,4.601c-0.054,0.948 -1.71,0.53 -1.589,-1.075c0.121,-1.605 -0.531,-0.625 -0.357,-1.44c0.174,-0.814 0.297,-1.433 0.398,-2.355c0.101,-0.922 -0.179,-0.347 -0.175,-1.886c0.003,-1.539 0.13,-5.407 0.072,-7.629c-0.057,-2.222 -0.268,-7.66 -0.331,-9.469c-0.063,-1.809 -0.007,-13.927 0.141,-15.631c0.147,-1.704 0.232,-9.238 0.429,-10.192c0.197,-0.954 0.478,-3.97 0.623,-5.262c0.145,-1.292 -0.361,-2.269 -0.344,-3.414c0.017,-1.118 0.606,-2.255 0.507,-4.06Zm21.716,59.914c0,-0 3.906,4.992 3.244,9.832c-0.662,4.839 -2.475,7.793 -6.241,7.379c-3.765,-0.414 -4.457,-3.931 -4.279,-5.781c0.177,-1.851 1.387,-9.753 7.276,-11.43Zm-4.564,25.731c-0,0 -0.11,-4.873 1.475,-5.931c1.585,-1.058 5.603,-0.391 6.467,0.928c0.864,1.32 2.503,6.626 -0.235,10.253c-1.848,2.447 -6.081,0.962 -6.746,0.265c-0.959,-1.007 -1.219,-3.31 -0.961,-5.515Zm-15.183,-0.751c-0,-0 -0.779,-5.865 0.967,-8.261c1.746,-2.396 3.948,-3.245 4.704,-3.121c0.756,0.123 4.001,1.912 3.696,6.202c-0.304,4.291 -6.324,5.108 -9.367,5.18Zm-16.281,-9.152c1.493,-1.874 3.536,-3.245 3.536,-3.245c0,0 2.026,-1.203 3.623,0.804c1.597,2.006 3.367,4.666 3.544,6.422c0.176,1.756 0.119,5.06 -0.429,6.015c-0.548,0.956 -1.732,2.196 -3.829,1.159c-2.096,-1.036 -3.935,-2.478 -4.834,-3.515c-0.899,-1.036 -2.554,-2.567 -2.591,-4.058c-0.036,-1.491 0.033,-2.393 0.98,-3.582Z"/></g></svg>